<?xml version="1.0" standalone="no"?>
<!DOCTYPE svg PUBLIC "-//W3C//DTD SVG 20010904//EN"
 "http://www.w3.org/TR/2001/REC-SVG-20010904/DTD/svg10.dtd">
<svg version="1.0" xmlns="http://www.w3.org/2000/svg"
 width="1066.000000pt" height="101.000000pt" viewBox="0 0 1066.000000 101.000000"
 preserveAspectRatio="xMidYMid meet">

<g transform="translate(0.000000,101.000000) scale(0.100000,-0.100000)"
fill="#000000" stroke="none">
<path d="M4190 912 c-259 -70 -386 -343 -272 -587 40 -85 105 -148 199 -192
68 -33 86 -37 180 -41 79 -4 119 -1 169 13 128 35 238 132 285 252 31 80 32
225 2 300 -44 112 -134 198 -253 244 -77 30 -222 35 -310 11z m258 -204 c22
-15 54 -49 69 -75 24 -41 28 -59 28 -123 0 -78 -15 -120 -59 -168 -61 -67
-181 -87 -264 -44 -143 75 -159 300 -30 402 43 33 69 40 144 37 58 -2 78 -7
112 -29z"/>
<path d="M10143 919 c-149 -29 -237 -123 -237 -254 1 -70 18 -109 69 -154 46
-40 76 -52 225 -90 163 -41 203 -77 146 -130 -49 -46 -198 -37 -322 19 l-62
28 -32 -72 c-17 -39 -34 -77 -37 -84 -7 -16 92 -60 177 -78 99 -21 245 -18
325 7 146 45 227 181 184 310 -17 51 -76 106 -136 129 -30 11 -98 31 -153 44
-136 34 -162 49 -158 88 2 20 13 38 30 51 39 29 151 28 233 -2 93 -35 92 -35
125 44 17 38 30 75 30 81 0 16 -87 49 -165 63 -67 13 -180 13 -242 0z"/>
<path d="M272 522 c-94 -214 -174 -396 -178 -406 -5 -14 6 -16 108 -16 l114 0
33 80 34 80 175 -2 176 -3 31 -77 30 -78 118 0 c64 0 117 1 117 3 0 1 -80 182
-178 402 l-177 400 -116 3 -115 3 -172 -389z m342 34 c26 -65 45 -120 43 -123
-3 -2 -49 -2 -105 -1 l-100 3 51 128 c28 70 54 124 57 120 4 -5 28 -61 54
-127z"/>
<path d="M1110 505 l0 -405 115 0 115 0 2 216 3 215 178 -215 178 -216 95 0
94 0 0 405 0 405 -110 0 -110 0 0 -210 c0 -115 -4 -210 -9 -210 -5 0 -87 95
-182 210 l-173 210 -98 0 -98 0 0 -405z"/>
<path d="M2070 505 l0 -405 208 0 c114 0 236 5 272 11 141 22 264 108 316 222
27 57 29 71 29 177 0 110 -1 118 -33 182 -50 103 -151 179 -273 207 -24 6
-151 11 -281 11 l-238 0 0 -405z m477 210 c81 -34 125 -105 126 -200 1 -84
-17 -128 -69 -174 -54 -47 -104 -61 -223 -61 l-91 0 0 223 c0 123 3 227 8 232
12 12 209 -3 249 -20z"/>
<path d="M3040 506 l0 -406 115 0 115 0 0 110 0 110 64 0 63 0 74 -110 74
-109 123 -1 124 0 -34 48 c-19 26 -58 82 -87 124 l-53 77 64 63 c76 74 93 119
86 225 -7 114 -60 192 -167 242 -55 26 -60 26 -308 29 l-253 3 0 -405z m414
223 c60 -16 86 -51 86 -114 0 -90 -54 -125 -197 -125 l-73 0 0 125 0 125 73 0
c39 0 89 -5 111 -11z"/>
<path d="M4920 505 l0 -405 110 0 110 0 0 405 0 405 -110 0 -110 0 0 -405z"/>
<path d="M5320 505 l0 -405 218 0 c152 0 238 5 287 15 206 44 322 170 333 364
10 179 -60 306 -208 381 -86 44 -131 50 -387 50 l-243 0 0 -405z m500 202 c69
-35 104 -92 108 -177 7 -110 -28 -179 -112 -222 -32 -17 -64 -22 -153 -26
l-113 -5 0 225 c0 124 3 228 7 232 4 3 54 4 112 1 83 -4 116 -10 151 -28z"/>
<path d="M6570 825 l0 -84 128 -3 127 -3 3 -317 2 -318 110 0 110 0 2 318 3
317 123 3 122 3 0 84 0 85 -365 0 -365 0 0 -85z"/>
<path d="M7492 522 c-94 -214 -174 -396 -178 -406 -5 -14 6 -16 108 -16 l114
0 33 80 34 80 175 -2 176 -3 31 -77 30 -78 118 0 c64 0 117 1 117 3 0 1 -80
182 -178 402 l-177 400 -116 3 -115 3 -172 -389z m342 34 c26 -65 45 -120 43
-123 -3 -2 -49 -2 -105 -1 l-100 3 51 128 c28 70 54 124 57 120 4 -5 28 -61
54 -127z"/>
<path d="M8330 505 l0 -405 310 0 310 0 0 90 0 90 -195 0 -195 0 0 315 0 315
-115 0 -115 0 0 -405z"/>
<path d="M9060 505 l0 -405 110 0 110 0 0 103 0 103 43 42 c23 23 45 42 49 42
3 0 57 -65 119 -145 l114 -145 128 0 c70 0 127 3 127 6 0 3 -73 101 -163 217
-90 117 -167 217 -170 224 -4 6 59 82 153 185 l160 173 -122 3 -122 3 -95
-103 c-53 -57 -124 -132 -158 -168 l-63 -65 0 168 0 167 -110 0 -110 0 0 -405z"/>
</g>
</svg>
